<?xml version="1.0" encoding="utf-8"?>
<!-- Generator: Adobe Illustrator 19.2.0, SVG Export Plug-In . SVG Version: 6.00 Build 0)  -->
<svg version="1.1" id="Layer_1" xmlns="http://www.w3.org/2000/svg" xmlns:xlink="http://www.w3.org/1999/xlink" x="0px" y="0px"
	 viewBox="0 0 396 159" style="enable-background:new 0 0 396 159;" xml:space="preserve">
<style type="text/css">
	.st0{fill-rule:evenodd;clip-rule:evenodd;fill:#2A3390;}
	.st1{fill:#2A3390;}
	.st2{fill:#E61E25;}
	.st3{fill:#FFFFFF;}
	.st4{fill:none;stroke:#000000;stroke-width:1.08;stroke-miterlimit:10;}
	.st5{fill:none;stroke:#000000;stroke-width:0.108;stroke-miterlimit:10;}
	.st6{fill-rule:evenodd;clip-rule:evenodd;fill:none;stroke:#000000;stroke-width:1.08;stroke-miterlimit:10;}
</style>
<g>
	<path class="st0" d="M309.1,157.8c-0.2-0.4-0.4-0.7-0.6-1.1c0.5-0.6,1.1-1.2,1.6-1.9c0.4-0.7,0.7-1.5,1-2.4c-1.8-0.1-3-0.5-3.4-2.2
		c-0.5-2.1,0.4-3.8,2.3-4.4c2.4-0.8,4.7,0.4,5.2,2.5c0.6,2.3-0.3,4.3-1.7,6c-1,1.2-2.3,2.2-3.4,3.3c-0.1,0.1-0.1,0.2-0.2,0.3
		C309.7,157.8,309.4,157.8,309.1,157.8z"/>
	<path class="st0" d="M198.8,87.5c4.8,1.7,7.7,5.1,8.4,10.1c0.6,4.3-0.5,8.3-3.6,11.5c-2.8,3-6.3,4.3-10.2,4.8
		c-2.3,0.3-4.7,0.4-7.1,0.4c-6.4,0.1-12.8,0-19.2,0c-0.4,0-0.7,0-0.9,0c0.2-3.9,0.4-7.8,0.6-11.7c0.1-1.3,0.2-2.6,0.2-3.9
		c0-6.3,0.1-12.6,0-18.9c0-3.8-0.2-7.7-0.4-11.5c-0.1-1.5-0.3-3.1-0.5-4.7c0.3,0,0.7,0,1,0c7.6,0,15.2-0.1,22.8,0
		c3.3,0.1,6.6,0.3,9.6,1.9c3.9,2.2,6.1,5.5,6.3,10.2c0.1,3.7-1.2,6.7-3.7,9.2C201.1,86,199.9,86.7,198.8,87.5z M181.5,93.4
		c0,0.1-0.1,0.1-0.1,0.2c0,3.5,0,6.9,0,10.4c0,1.7-0.4,1.6,1.5,1.8c2.3,0.4,4.6,0,6.3-1.8c1.5-1.5,1.7-3.5,1.4-5.6
		C190,94,184.8,92.2,181.5,93.4z M181.4,72.4c0,3.3,0,6.5,0,9.7c0,1,0,1.5,1.3,1.7c2.2,0.3,4.7-0.6,5.9-2.4c1.7-2.7,1.1-6.9-1.7-8.5
		C185.2,71.9,183.4,71.8,181.4,72.4z"/>
	<path class="st0" d="M166.4,1.9c0.5,0,0.9,0,1.3,0c7.3,0,14.6,0,21.9,0c3.8,0,7.4,0.7,10.6,2.8c3.4,2.1,5.5,5.3,6.3,9.2
		c0.8,3.6,0.5,7.2-1,10.6c-1.1,2.5-2.9,4.4-5.2,5.8c-3,1.8-6.4,2.8-9.9,3.1c-2.5,0.2-5,0.3-7.5,0.4c-0.2,0-0.4,0-0.6,0
		c-0.2,6.3,0.1,12.5,0.8,18.7c-5.6,0-11.1,0-16.7,0c0.1-0.6,0.2-1.1,0.2-1.6c0.1-1.6,0.3-3.2,0.4-4.7c0.1-4.2,0.2-8.4,0.2-12.6
		c0-6.9,0.1-13.7,0-20.6c-0.1-3.3-0.5-6.6-0.7-10C166.4,2.8,166.4,2.4,166.4,1.9z M182.2,12c0,4.2,0,8.3,0,12.4
		c2.4,0.8,5.4,0,6.9-1.8c1.7-2.1,1.8-5.9,0.5-8.1C188.5,12.6,185.2,11,182.2,12z"/>
	<path class="st0" d="M264.7,52.6c0.8-11.9,0.9-23.7,0-35.6c4,0,8.2,0,12.4,0c0.4,0.7,0.7,1.5,1.2,2.4c1-0.6,2.1-1.3,3.2-1.9
		c4-2.2,8.1-2.5,12.1-0.1c2.8,1.7,4.4,4.3,4.5,7.6c0.2,6.6,0.1,13.1,0.3,19.7c0.1,2.5,0.4,5,0.6,7.5c0,0.2,0,0.3,0,0.5
		c-4.8,0-9.7,0-14.6,0c0-0.4,0-0.8,0-1.2c0-7.5,0-15,0-22.6c0-0.7-0.1-1.4-0.3-2c-0.3-1.2-1.4-1.8-2.7-1.7c-1,0.1-2,1.2-2,2.3
		c-0.1,4.8-0.2,9.7-0.2,14.5c0,2,0.1,4,0.2,6c0.1,1.5,0.3,3,0.5,4.6C274.7,52.6,269.6,52.6,264.7,52.6z"/>
	<path class="st0" d="M246.2,114.3c0.7-11.9,0.9-23.7-0.1-35.7c4,0,8.2,0,12.4,0c0.4,0.7,0.8,1.5,1.2,2.4c1.2-0.7,2.5-1.5,3.8-2.2
		c1.8-1,3.9-1.4,6-1.4c4.9,0,8.9,3.1,10,7.9c0.2,1.2,0.4,2.4,0.4,3.6c0,6.1,0,12.2,0,18.3c0,2.2,0.4,4.4,0.6,6.6c0,0.2,0,0.3,0,0.5
		c-4.8,0-9.7,0-14.6,0c0-0.4,0-0.8,0-1.1c0-7.5,0-14.9,0-22.4c0-0.7-0.1-1.5-0.3-2.2c-0.3-1.2-1.4-1.8-2.7-1.7c-1,0.1-2,1.2-2,2.4
		c-0.1,3.2-0.1,6.4-0.2,9.7c0,1.5,0,2.9,0,4.4c0.1,3,0.2,5.9,0.4,8.9c0,0.7,0.2,1.3,0.4,2.1C256.3,114.3,251.2,114.3,246.2,114.3z"
		/>
	<path class="st0" d="M262.1,52.7c-4.5,0-8.8,0-13.2,0c-0.6,0-1.1-0.7-1.8-1.2c-0.9,0.4-1.9,1-3,1.3c-3.7,1.2-7.4,1.3-10.8-0.7
		c-3.2-1.9-5-4.6-5.6-8.3c-0.3-2.1-0.1-4.1,0.6-6.1c0.9-2.7,2.9-4.4,5.2-5.8c3.3-2,7-3.2,10.6-4.5c1.1-0.4,1.1-0.5,0.8-1.6
		c-0.6-2.1-3.1-2.6-4.7-2.3c-3.4,0.6-5,1.3-9.4,4.4c0-3.8,0-7.5,0-11.3c1.9-0.3,3.8-0.6,5.8-0.8c2.1-0.2,4.2-0.3,6.2-0.2
		c3.5,0.2,7,0.7,10.3,2.3c4,2,6,5.3,6.6,9.7c0.7,5.3,0.2,10.5,0.4,15.8c0.1,2.9,0.6,5.7,1.6,8.4C262,52.1,262,52.3,262.1,52.7z
		 M246.6,34.8c-1.6,0.4-3,1-3.9,2.1c-1.1,1.4-1.6,3.1-1.4,4.9c0.2,2.2,1.2,3.8,3.6,3.5c1.1-0.1,1.7-0.7,1.7-1.8c0-2.2,0-4.3,0-6.5
		C246.6,36.3,246.6,35.6,246.6,34.8z"/>
	<path class="st0" d="M312.9,104c1.2,1.4,2.5,3,3.9,4.6c0.4,0.4,0.2,0.7-0.2,1c-2.6,2.6-5.7,4.3-9.3,5.1c-4.7,1.1-9.2,0.9-13.6-1.1
		c-4.8-2.2-7.8-5.9-9.1-11.1c-1.4-5.4-1-10.7,1.5-15.7c2.5-4.9,6.5-8,12-9.1c3.9-0.8,7.7-0.4,11.2,1.4c4.1,2,6.6,5.3,7.4,9.8
		c0.3,1.7,0.4,3.4,0.6,5.1c0.1,0.5-0.2,0.8-0.7,1c-5.6,2.2-11.1,4.4-16.6,6.6c-0.5,0.2-0.6,0.4-0.4,0.9c1.2,2.7,3.1,4.6,6.1,5
		c0.8,0.1,1.8-0.2,2.5-0.6C309.8,106.1,311.3,105,312.9,104z M297.6,95.2c1.8-0.9,3.6-1.7,5.3-2.6c0.4-0.2,0.7-0.7,0.8-1.2
		c0.1-1.6,0.1-3.2-0.6-4.6c-1.2-2.3-3-1.8-4.1-0.2C297.1,89.1,297.3,92.1,297.6,95.2z"/>
	<path class="st0" d="M239.2,103.7c1.5,1.8,2.9,3.6,4.3,5.3c-2.7,2.9-6.1,4.8-9.9,5.7c-4.9,1.1-9.8,0.8-14.3-1.5
		c-4.8-2.5-7.6-6.6-8.6-11.8c-0.4-2.3-0.6-4.7-0.4-7.1c0.4-4.3,2-8.2,5-11.5c2.6-2.9,5.9-4.5,9.7-5.2c3.3-0.6,6.6-0.2,9.8,1.1
		c4.7,2,7.5,5.5,8.4,10.5c0.3,1.5,0.4,3.1,0.6,4.6c0.1,0.6-0.1,0.9-0.8,1.2c-5.5,2.2-11,4.4-16.5,6.6c-0.5,0.2-0.6,0.4-0.4,0.9
		c0.9,2.1,2.3,3.8,4.5,4.6c1.1,0.4,2.2,0.4,3.3,0.1C236,106.6,237.7,105.4,239.2,103.7z M224.1,95.1c1.8-0.9,3.5-1.7,5.2-2.6
		c0.4-0.2,0.7-0.7,0.8-1.1c0.1-1.7,0.1-3.4-0.7-4.9c-0.7-1.3-1.8-1.7-2.8-1.2c-1,0.6-1.7,1.5-2,2.6
		C223.8,90.3,223.6,92.6,224.1,95.1z"/>
	<path class="st0" d="M337,114.4c-5,0-10.1,0-15,0c0.1-3.1,0.3-6.2,0.3-9.3c0.1-6.2,0.1-12.3,0.2-18.5c0,0,0-0.1-0.1-0.2
		c-0.9,0-1.9,0-2.9,0c0-2.6,0-5.1,0-7.8c1,0,2,0,3.1,0c0-1.7-0.1-3.2,0-4.7c0.2-1.6,0.4-3.3,1.1-4.9c1.2-3.1,3.8-4.7,6.8-5.5
		c3.3-0.9,6.8-1,10.2-0.3c0.6,0.1,0.8,0.4,0.8,1c0,2.6,0,5.2,0,7.8c-1-0.1-1.9-0.2-2.8-0.2c-2.2,0-3.5,1.7-3,3.8
		c0.6,2.9,0.6,2.9,3.6,2.9c0.4,0,0.9,0,1.4,0c0,2.6,0,5.1,0,7.7c-1.4,0-2.8,0-4.3,0C336.5,95.7,335.9,105,337,114.4z"/>
	<path class="st0" d="M366.9,67.7c4.8,0,9.6,0,14.5,0c-0.1,3.6-0.3,7.2-0.4,10.9c1.7,0,3.3,0,4.9,0c0,2.6,0,5.1,0,7.8
		c-1.6,0-3.2,0-4.8,0c0,0.4-0.1,0.7-0.1,1c0,4.6,0,9.3,0,13.9c0,1,0.2,2,0.4,3c0.3,1.6,1.5,2.2,2.9,2.5c0.5,0.1,1,0.2,1.5,0.3
		c0,2.5,0,4.9,0,7.5c-1.4,0.3-2.7,0.6-4.1,0.7c-2.2,0.3-4.5,0.4-6.7-0.2c-2.7-0.7-5.3-1.7-6.8-4.3c-0.5-0.9-0.8-2-1.1-3.1
		c-0.2-1-0.2-2-0.2-3c0-5.7,0-11.3,0-17c0-0.4,0-0.8,0-1.3c-1.1,0-2.2,0-3.3,0c0-2.7,0-5.2,0-7.8c1.1,0,2.1,0,3.2,0
		C366.9,74.9,366.9,71.3,366.9,67.7z"/>
	<path class="st0" d="M209.9,52.6c0.2-1.6,0.4-3.2,0.4-4.9c0.1-11.1,0.2-22.3,0.2-33.4c0-4.1,0-8.2-1-12.3c4.8,0,9.6,0,14.5,0
		c0.1,0.3,0.2,0.7,0.3,1c0.1,2,0.2,4,0.2,5.9c0,12.8,0,25.6,0,38.4c0,1.7,0.3,3.4,0.5,5.2C220,52.6,214.9,52.6,209.9,52.6z"/>
	<g id="XMLID_1_">
		<g>
			<path class="st1" d="M153.3,6.6c-0.1,7.9-0.1,15.8-0.1,23.7c0,3-1.3,4.4-4.3,4.4c-4.4,0.2-8.8,0.8-13.1,1.3
				c-6.1,0.7-11.9,2.4-17.7,4.4c-7.2,2.5-14,5.8-20.4,9.8c-4.9,3.1-9.5,6.7-13.8,10.5c-4.3,4-8.3,8.2-12,12.9
				c-5.6,7-10.2,14.6-14,22.7c-3.8,8.1-6.6,16.5-8.4,25.2c-0.8,3.8-1.5,7.8-1.9,11.7c-0.5,3.9-0.6,7.8-0.8,11.7
				c-0.1,1.4-0.2,2.9-0.3,4.3c-0.1,1.5-1.3,2.6-3,2.6c-5.9,0-11.8,0-17.7,0c-2.5,0-4.9-0.1-7.4-0.1c3.7,0,7.3,0,11,0
				c0.2-5.3,0.4-10.5,0.8-15.6c0.4-4.8,1-9.6,1.6-14.4c0.8-6.1,2.4-12,4.1-17.9c2.3-7.4,5.4-14.6,9.2-21.3c3.4-5.9,7.4-11.4,12-16.4
				c5.8-6.2,12.3-11.6,19.5-16c6.1-3.8,12.5-6.8,19.2-9.2c7.2-2.6,14.6-4.8,22.2-5.8c6.1-0.9,12.2-1.7,18.4-2.2
				c4.6-0.4,9.1-0.3,13.6-0.4c2.4,0,3.2-0.9,3.2-3.2c0-3.4,0-6.6,0-10c0-4.7,0-9.5,0-14.2C153.2,5.6,153.3,6.1,153.3,6.6z"/>
			<path class="st2" d="M153.2,126.4c0,7.1,0.1,14.1,0,21.2c0,0.8-0.1,1.7-0.4,2.4c-0.6,1.2-1.4,1.9-2.9,1.9
				c-12.9-0.1-25.9-0.1-38.8,0c-2.6,0.1-3.8-2.1-3.6-4.2c0.4-2.6,0.8-5.1,1.4-7.6c0.8-3,1.7-5.9,2.7-8.7c1.9-4.9,4.7-9.4,8-13.5
				c6.7-8.2,14.9-14.1,25.4-16.3c1.8-0.4,3.7-0.5,5.6-0.4c1.8,0.2,2.6,1.2,2.6,3.9C153.3,112.2,153.2,119.3,153.2,126.4z"/>
			<path class="st3" d="M153.2,70.8c0,3,0,6,0,8.9c0,0.5-0.1,1.1-0.1,1.6c0,0.1,0,0.1,0,0.1c-0.2,1.4-1.1,2-2.7,2.2
				c-2.7,0.2-5.4,0.5-8.1,0.8c-2.9,0.4-5.8,1-8.7,1.4c-4.8,0.8-9.5,2.1-14.1,3.8c-6.5,2.5-12.5,5.8-17.9,10.1
				c-6.9,5.5-12,12.5-15.5,20.5c-2.3,5.2-3.9,10.6-4.5,16.3c-0.4,3-0.6,6.1-0.9,9.2c-0.1,2-0.2,3.9-0.4,6.1c-4.9,0-9.7,0-14.5,0
				c-2.1,0-4.2,0-6.3,0c-1.2-0.2-2.2-1-2.7-2.2c0.2-3.3,0.4-6.6,0.9-9.9c0.5-3.6,1-7.2,2-10.7c1.2-4.5,2.5-9,4.1-13.4
				c3.1-8.6,7.6-16.5,12.9-23.9c2-2.7,4.1-5.2,6.2-7.8c1.8-2.2,3.7-4.3,5.7-6.2c6.5-6.2,13.4-11.8,21.3-16c5-2.6,10.2-5,15.5-7
				c4.5-1.6,9.3-2.5,14.1-3.4c1.8-0.4,3.6-0.6,5.3-0.8c1.6-0.2,3.2-0.2,4.9-0.4c2.2,0,3.5,1.5,3.5,3.9
				C153.2,59.7,153.2,65.3,153.2,70.8z"/>
			<path class="st1" d="M153.2,79.7c0,0.3,0,0.7,0,1c0,0.2,0,0.4-0.1,0.6C153.2,80.8,153.2,80.2,153.2,79.7z"/>
			<path class="st1" d="M153.2,53.3c0,0.3,0,0.5,0,0.9c0-2.4-1.3-3.9-3.5-3.9c0.2,0,0.4,0,0.5,0C152.5,50.1,153.2,50.9,153.2,53.3z"
				/>
			<path class="st3" d="M153.2,19.3c0,3.4,0,6.6,0,10c0,2.4-0.8,3.2-3.2,3.2c-4.6,0.1-9.1,0-13.6,0.4c-6.2,0.5-12.2,1.3-18.4,2.2
				c-7.6,1-14.9,3.2-22.2,5.8c-6.7,2.5-13.1,5.5-19.2,9.2c-7.2,4.5-13.8,9.8-19.5,16c-4.6,5-8.6,10.5-12,16.4
				c-3.9,6.8-7,13.9-9.2,21.3c-1.8,5.9-3.3,11.8-4.1,17.9c-0.6,4.8-1.2,9.6-1.6,14.4c-0.4,5.1-0.5,10.2-0.8,15.6c-3.6,0-7.3,0-11,0
				h0c-2.2,0-4.4,0.1-6.7,0c-1.4-0.1-2.3-0.9-3-2.2c0,0,0,0,0,0c0.2-3.7,0.5-7.4,0.8-11.1c0.4-3.8,0.8-7.5,1.4-11.2
				c0.9-4.9,1.9-9.7,3.3-14.4c1.8-6.1,3.8-12.2,6.1-18.1c2.1-5.2,4.7-10.2,7.4-15.2C30.3,75,33,70.5,36,66.1
				c2.8-4.1,5.9-8.1,9.2-11.8c3.7-4.3,7.5-8.7,11.8-12.6C61.7,37.2,66.8,33,72,29c6.7-5,13.9-9.2,21.4-12.9
				c9.2-4.5,18.9-8,28.9-10.4c4.9-1.2,9.9-1.8,14.8-2.5c3.4-0.5,6.8-0.6,10.1-0.8c1-0.1,2-0.2,3-0.3c0.1,0,0.2,0,0.4,0.1
				c1.6,0.5,2.2,1.6,2.5,3c0,0,0,0,0,0.1C153.2,9.8,153.2,14.6,153.2,19.3z"/>
			<path class="st1" d="M153.2,81.4c0,0.5-0.1,1-0.2,1.5c-0.3,1.6-1.4,2.4-3.1,2.5c-9.1,0.4-17.5,2.9-25.2,7.7
				c-3.8,2.3-7.3,5.2-10.3,8.4c-5.1,5.6-9.2,11.8-11.8,19c-1.6,4.4-3,9-4,13.6c-0.8,3.6-0.9,7.2-1.2,10.8c-0.2,1.6-0.2,3.1-0.3,4.6
				c-0.1,1.2-1.6,2.4-3,2.4c-5.7,0-11.4,0-17,0c-3.8,0-7.5-0.1-11.2-0.1c4.8,0,9.6,0,14.5,0c0.1-2.1,0.2-4.1,0.4-6.1
				c0.2-3.1,0.5-6.2,0.9-9.2c0.6-5.7,2.2-11.1,4.5-16.3c3.5-8,8.6-15,15.5-20.5c5.4-4.4,11.4-7.7,17.9-10.1
				c4.6-1.8,9.3-3.1,14.1-3.8c2.9-0.4,5.8-1,8.7-1.4c2.7-0.3,5.4-0.6,8.1-0.8C152,83.4,153,82.8,153.2,81.4z"/>
			<path class="st1" d="M150.7,2.1c1.7,0.1,2.5,1.1,2.5,3C152.9,3.7,152.2,2.6,150.7,2.1z"/>
			<path class="st1" d="M150.7,2.1C150.5,2,150.4,2,150.3,2c0.1,0,0.1,0,0.2,0C150.6,2,150.6,2.1,150.7,2.1z"/>
			<path class="st1" d="M147,2c1.1,0,2.2,0,3.3,0c-1,0.1-2,0.2-3,0.3c-3.4,0.2-6.8,0.4-10.1,0.8c-4.9,0.7-9.9,1.4-14.8,2.5
				c-10,2.4-19.7,5.9-28.9,10.4C85.9,19.8,78.7,24,72,29c-5.2,4-10.3,8.2-15.1,12.6c-4.2,3.9-8.1,8.2-11.8,12.6
				C41.9,58,38.8,62,36,66.1c-3,4.4-5.8,8.9-8.3,13.6c-2.7,4.9-5.3,9.9-7.4,15.2c-2.4,5.9-4.3,12-6.1,18.1
				c-1.4,4.7-2.4,9.5-3.3,14.4c-0.7,3.7-1.1,7.4-1.4,11.2c-0.3,3.7-0.6,7.4-0.8,11.1c0,0-0.1-0.1-0.1-0.1c0-1.3,0-2.6,0-3.8
				c0.1-0.5,0.2-0.9,0.2-1.4c0.4-4,0.7-8,1.1-12.1c0.6-6.3,2-12.4,3.6-18.6c1.7-6.6,3.8-13.1,6.6-19.4c2.1-4.9,4.3-9.8,6.8-14.6
				c3.7-6.9,7.9-13.5,12.7-19.6c3.4-4.2,7-8.3,10.6-12.5c4.2-4.8,9-9,13.8-13c6.7-5.6,13.9-10.5,21.4-14.8c8.8-5,18-8.9,27.7-11.9
				c6.2-1.9,12.4-3.4,18.9-4.2c3.1-0.4,6.3-0.8,9.4-1c1.6-0.2,3.3-0.2,4.9-0.3C146.5,2.3,146.8,2.1,147,2z"/>
			<path class="st1" d="M140.2,51.1c1.6-0.1,3.1-0.3,4.6-0.4c-1.8,0.2-3.6,0.4-5.3,0.8c-4.8,0.9-9.6,1.8-14.1,3.4
				c-5.3,1.9-10.5,4.4-15.5,7c-7.9,4.1-14.9,9.8-21.3,16c-2,1.9-3.9,4.1-5.7,6.2c-2.2,2.6-4.2,5.1-6.2,7.8
				c-5.3,7.4-9.8,15.3-12.9,23.9c-1.6,4.4-3,9-4.1,13.4c-0.9,3.5-1.5,7.1-2,10.7c-0.5,3.3-0.6,6.6-0.9,9.9c-0.1-0.4-0.1-0.8-0.1-1.2
				c0.2-6.4,1-12.8,2.4-19c1.7-7.5,4.2-14.8,7.5-21.8c3.4-7.2,7.6-13.9,12.5-20.3c3.5-4.5,7.3-8.7,11.6-12.5
				c5.6-5.2,11.7-9.6,18.4-13.3c5.4-3,11-5.5,16.9-7.4C130.7,52.7,135.4,51.5,140.2,51.1z"/>
			<path class="st1" d="M65.9,151.9c-1.8,0-3.7,0-5.5,0.1c-0.3,0-0.5,0-0.8-0.1C61.6,151.9,63.8,151.9,65.9,151.9z"/>
			<path class="st1" d="M59.5,151.9c-0.3,0-0.5,0-0.8,0c-1.1,0-1.9-0.8-1.8-2c0-0.1,0-0.1,0-0.2C57.3,150.8,58.3,151.6,59.5,151.9z"
				/>
			<path class="st1" d="M18.3,151.9c-1.9,0-3.7,0.1-5.6,0.1c-0.4,0-0.8,0-1.1-0.1C13.8,151.9,16.1,151.9,18.3,151.9z"/>
			<path class="st1" d="M11.6,151.9c-0.2,0-0.4,0-0.6,0c-1.6,0-2.4-0.8-2.4-2.2C9.3,151,10.2,151.7,11.6,151.9z"/>
		</g>
		<g>
			<path class="st4" d="M153.2,126.4c0,7.1,0.1,14.1,0,21.2c0,0.8-0.1,1.7-0.4,2.4c-0.6,1.2-1.4,1.9-2.9,1.9
				c-12.9-0.1-25.9-0.1-38.8,0c-2.6,0.1-3.8-2.1-3.6-4.2c0.4-2.6,0.8-5.1,1.4-7.6c0.8-3,1.7-5.9,2.7-8.7c1.9-4.9,4.7-9.4,8-13.5
				c6.7-8.2,14.9-14.1,25.4-16.3c1.8-0.4,3.7-0.5,5.6-0.4c1.8,0.2,2.6,1.2,2.6,3.9C153.3,112.2,153.2,119.3,153.2,126.4z"/>
			<path class="st5" d="M153.2,79.7c0,0.5-0.1,1.1-0.1,1.6"/>
			<path class="st5" d="M149.7,50.3c2.2,0,3.5,1.5,3.5,3.9"/>
			<path class="st5" d="M153.2,81.4c0,0.5-0.1,1-0.2,1.5c-0.3,1.6-1.4,2.4-3.1,2.5c-9.1,0.4-17.5,2.9-25.2,7.7
				c-3.8,2.3-7.3,5.2-10.3,8.4c-5.1,5.6-9.2,11.8-11.8,19c-1.6,4.4-3,9-4,13.6c-0.8,3.6-0.9,7.2-1.2,10.8c-0.2,1.6-0.2,3.1-0.3,4.6
				c-0.1,1.2-1.6,2.4-3,2.4c-5.7,0-11.4,0-17,0c-3.8,0-7.5-0.1-11.2-0.1c-1.8,0-3.7,0-5.5,0.1c-0.3,0-0.5,0-0.8-0.1
				c-1.2-0.2-2.2-1-2.7-2.2c-0.1-0.4-0.1-0.8-0.1-1.2c0.2-6.4,1-12.8,2.4-19c1.7-7.5,4.2-14.8,7.5-21.8c3.4-7.2,7.6-13.9,12.5-20.3
				c3.5-4.5,7.3-8.7,11.6-12.5c5.6-5.2,11.7-9.6,18.4-13.3c5.4-3,11-5.5,16.9-7.4c4.6-1.5,9.4-2.7,14.2-3.1c1.6-0.1,3.1-0.3,4.6-0.4
				"/>
			<path class="st5" d="M65.9,151.9c4.8,0,9.6,0,14.5,0c0.1-2.1,0.2-4.1,0.4-6.1c0.2-3.1,0.5-6.2,0.9-9.2c0.6-5.7,2.2-11.1,4.5-16.3
				c3.5-8,8.6-15,15.5-20.5c5.4-4.4,11.4-7.7,17.9-10.1c4.6-1.8,9.3-3.1,14.1-3.8c2.9-0.4,5.8-1,8.7-1.4c2.7-0.3,5.4-0.6,8.1-0.8
				c1.6-0.2,2.5-0.8,2.7-2.2c0,0,0,0,0-0.1c0.1-0.2,0.1-0.4,0.1-0.6c0-0.3,0-0.7,0-1c0-2.9,0-5.9,0-8.9c0-5.5,0-11.1,0-16.7
				c0-0.3,0-0.6,0-0.9c0-2.4-0.7-3.2-3-3c-0.1,0-0.3,0-0.5,0c-1.6,0.1-3.2,0.2-4.9,0.4c-1.8,0.2-3.6,0.4-5.3,0.8
				c-4.8,0.9-9.6,1.8-14.1,3.4c-5.3,1.9-10.5,4.4-15.5,7c-7.9,4.1-14.9,9.8-21.3,16c-2,1.9-3.9,4.1-5.7,6.2
				c-2.2,2.6-4.2,5.1-6.2,7.8c-5.3,7.4-9.8,15.3-12.9,23.9c-1.6,4.4-3,9-4.1,13.4c-0.9,3.5-1.5,7.1-2,10.7c-0.5,3.3-0.6,6.6-0.9,9.9
				c0,0.1,0,0.1,0,0.2c-0.1,1.2,0.7,2,1.8,2c0.3,0,0.5,0,0.8,0C61.6,151.9,63.8,151.9,65.9,151.9z"/>
		</g>
	</g>
	<path class="st0" d="M359.9,114.4c-4.9,0-9.9,0-15,0c0.2-1.8,0.3-3.6,0.4-5.4c0-0.4,0.1-0.7,0.1-1.1c0-7.6,0-15.2,0-22.7
		c0-2.2-0.3-4.4-0.5-6.6c4.8,0,9.7,0,14.6,0c0,0.4,0,0.8,0,1.2c0,8.2,0,16.5,0,24.7C359.5,107.8,359.8,111.1,359.9,114.4z"/>
	<path class="st0" d="M227.3,152.7c-2.4-6-4.9-11.9-6.3-18.3c0,1.3,0,2.7,0,4.1c-0.4,0-0.6,0.1-0.8,0c-2.7-0.3-4.3,1.7-4.5,4
		c-0.2,2.7-0.1,5.4-0.1,8.2c0,0.6,0.1,1.2,0.1,1.9c-2.8,0-5.6,0-8.4,0c0.4-6.6,0.4-13.2,0-19.9c2.2,0,4.4,0,6.6,0
		c0.2,0,0.5,0.3,0.6,0.6c0.2,0.4,0.3,0.9,0.4,1.4c0.6-0.5,1.1-1,1.7-1.3c1.3-0.9,2.7-1.4,4.3-0.7c0.3,0.1,0.7,0.1,1.1,0.1
		c2.3,0,4.5,0,6.7,0c0.7,3.6,1.4,7.1,2.2,10.7c0.1,0,0.2,0,0.3,0c0.4-1.7,0.8-3.3,1.2-5c0.4-1.7,0.6-3.3,1-5
		c0.1-0.3,0.4-0.7,0.6-0.7c1.9-0.1,3.8,0,5.9,0c-0.7,2.5-1.4,4.9-2.2,7.2c-1.3,3.9-2.8,7.8-4.2,11.7c-0.3,0.7-0.7,1.1-1.6,1.1
		C230.4,152.6,228.9,152.7,227.3,152.7z"/>
	<path class="st0" d="M166,144.1c1.9,1.1,3.6,2.2,5.5,3.1c1.4,0.7,3,0.8,4.6,0.4c1.8-0.5,2.3-2.4,1-3.6c-0.9-0.8-2-1.4-3.2-2
		c-2.3-1.2-4.8-2.1-6.4-4.4c-1.3-2-1.4-4.3-0.8-6.5c1-3.8,3.7-6,7.4-6.8c3.1-0.7,6.2-0.4,9.2,0.7c0.3,0.1,0.6,0.4,0.6,0.6
		c0,2,0,4,0,6.2c-0.8-0.5-1.5-1-2.2-1.3c-1.4-0.6-2.8-1.2-4.2-1.7c-0.9-0.3-2.4,0.4-3,1.3c-0.4,0.8-0.3,1.5,0.3,2.1
		c1.2,1.4,3,1.8,4.5,2.5c2.2,1,4.4,2,5.7,4.2c0.5,0.8,0.9,1.8,1,2.8c0.3,3.2-0.2,6.1-2.7,8.4c-1.8,1.6-3.9,2.5-6.3,2.7
		c-3.6,0.3-7.2,0-10.5-1.5c-0.2-0.1-0.5-0.4-0.5-0.5C166,148.7,166,146.4,166,144.1C166,144.1,166.1,144,166,144.1z"/>
	<path class="st0" d="M358.9,152.6c-2.7,0-5.4,0-8.1,0c0-0.9,0-1.7,0-2.6c0-3.5,0-7,0-10.5c0-0.2,0-0.5,0-0.7
		c-0.1-0.8-0.5-1.3-1.3-1.5c-0.6-0.1-1.3,0.7-1.3,1.5c0,1.5,0,2.9,0,4.4c0,2.2,0,4.4,0,6.6c0,0.9,0.2,1.8,0.3,2.7
		c-2.8,0-5.5,0-8.4,0c0.5-6.6,0.6-13.2,0-19.8c2.3,0,4.6,0,6.9,0c0.2,0.4,0.5,0.8,0.7,1.3c1.7-1.3,3.5-2,5.6-2
		c2.8,0.1,5.3,2.5,5.3,5.3c0,2.9,0,5.8,0,8.6c0,2,0.2,4,0.4,6C358.9,152.3,358.9,152.4,358.9,152.6z"/>
	<path class="st0" d="M196.5,145.7c1.1,2.7,3.6,4.5,7.3,0.9c0.7,0.8,1.4,1.6,2,2.4c0.1,0.2,0,0.7-0.1,0.9c-1.4,1.5-3.2,2.4-5.2,2.8
		c-2.7,0.5-5.3,0.4-7.7-0.9c-3-1.6-4.4-4.1-4.9-7.4c-0.4-3.2,0.2-6,2.1-8.6c1.6-2.3,3.9-3.4,6.5-3.7c2.2-0.2,4.4,0.1,6.3,1.4
		c2,1.3,3,3.2,3.3,5.5c0.1,0.6,0.1,1.2,0.2,1.8c0.1,0.7-0.3,0.9-0.8,1.1c-2.7,1.1-5.5,2.2-8.2,3.3
		C197,145.5,196.8,145.6,196.5,145.7z M195.3,140.1c0,1.7,0.1,1.8,1.4,1.2c0.5-0.2,0.9-0.4,1.4-0.7c0.3-0.2,0.6-0.5,0.6-0.8
		c0-0.8-0.1-1.6-0.3-2.4c-0.3-1-1.3-1.1-2-0.4C195.4,138,195.5,139.2,195.3,140.1z"/>
	<path class="st0" d="M277.5,145.7c1.1,2.8,3.6,4.5,7.3,0.9c0.7,0.9,1.5,1.7,2.1,2.6c0.1,0.1-0.1,0.6-0.2,0.8
		c-1.4,1.6-3.3,2.4-5.3,2.8c-2.6,0.5-5.2,0.4-7.6-0.9c-3-1.6-4.5-4.2-4.9-7.6c-0.4-3.1,0.3-5.9,2-8.4c1.6-2.3,3.9-3.4,6.5-3.7
		c2.3-0.3,4.5,0.1,6.5,1.5c1.9,1.4,3,3.2,3.2,5.5c0,0.6,0.1,1.2,0.2,1.7c0.1,0.6-0.2,0.9-0.8,1.1c-2.8,1.1-5.5,2.2-8.2,3.3
		C278,145.4,277.8,145.6,277.5,145.7z M279.8,139.1c-0.1-0.4-0.1-0.9-0.3-1.3c-0.2-0.5-0.6-1-1-1.2c-0.7-0.3-1.2,0.3-1.5,1
		c-0.3,0.7-0.5,1.5-0.7,2.3c-0.1,0.6,0.1,1.1,0.1,1.7c0.6-0.2,1.1-0.3,1.7-0.5c0.2-0.1,0.3-0.2,0.5-0.3
		C279.5,140.6,279.9,140,279.8,139.1z"/>
	<path class="st0" d="M303.6,138.5c-1.6-0.6-3.2-1.2-4.8-1.8c-0.2-0.1-0.5-0.1-0.8-0.1c-0.6,0.1-1.3,0.1-1.4,0.9
		c-0.1,0.7,0.4,1,1,1.2c1.7,0.8,3.5,1.5,5.1,2.5c3.4,1.9,3.2,6.9,0.9,9.3c-1.4,1.4-3.2,2.1-5.1,2.4c-3.1,0.5-6.2,0-9.1-0.9
		c-0.6-0.2-0.8-0.4-0.8-1c0-2,0-4,0-5.9c1.6,1,3,1.9,4.6,2.7c1,0.5,2.2,1,3.4,0.4c0.7-0.4,0.8-0.9,0.2-1.5c-0.4-0.4-0.9-0.6-1.4-0.9
		c-1.4-0.8-2.9-1.5-4.3-2.4c-2.5-1.5-3-4.2-1.9-6.7c1.1-2.6,3.1-3.8,5.7-4.4c2.8-0.5,5.5,0,8.1,0.6c0.2,0.1,0.5,0.4,0.5,0.5
		C303.6,135.3,303.6,137,303.6,138.5z"/>
	<path class="st0" d="M337.7,152.6c-3,0-6,0-9,0c0.5-9.4,0.5-18.7,0-28.1c3,0,6,0,9,0C337.2,133.9,337.2,143.2,337.7,152.6z"/>
	<path class="st0" d="M267.1,138.3c-1.2-0.5-2.2-1-3.3-1.4c-1.2-0.4-3,0.3-3.7,1.4c-1.5,2.4-1.3,6.2,0,8.3c1.3,2.2,3.3,2.2,5.3,1.1
		c0.3-0.2,0.6-0.4,1-0.6c0.4,0.5,0.8,1,1.2,1.4c0.4,0.5,0.7,1,1.1,1.5c-1.6,1.5-3.5,2.5-5.8,2.8c-2.9,0.4-5.5-0.1-7.8-1.6
		c-2.3-1.5-3.5-3.7-3.9-6.4c-0.6-4,0.7-7.3,3.6-9.9c1.5-1.4,3.4-2.2,5.4-2.6c2.1-0.4,4.3-0.3,6.4,0.2c0.2,0.1,0.6,0.4,0.6,0.5
		C267.1,134.8,267.1,136.6,267.1,138.3z"/>
	<path class="st0" d="M376.4,138.3c-0.9-0.4-1.8-0.8-2.6-1.2c-1.8-1-4.4,0.2-5.1,2.5c-0.6,2.2-0.6,4.3,0.3,6.3
		c1,2.4,3.1,3.2,5.7,1.7c0.3-0.2,0.6-0.3,0.9-0.5c0.7,0.9,1.3,1.8,1.9,2.7c0.1,0.2-0.1,0.8-0.4,0.9c-1.4,0.8-2.8,1.7-4.3,2.1
		c-2.6,0.7-5.2,0.4-7.6-0.9c-2.9-1.5-4.5-3.8-4.9-7c-0.6-4,0.8-7.3,3.7-10c1.5-1.4,3.5-2.2,5.5-2.5c2-0.3,4.1-0.2,6.1,0.2
		c0.5,0.1,0.7,0.3,0.7,0.8C376.4,135,376.4,136.6,376.4,138.3z"/>
	<path class="st0" d="M352.3,76.8c-2.1,0.1-4.2-0.6-5.7-2.2c-3.2-3.3-2.5-8.1,1.5-10.4c3.4-2.1,8.2-1.4,10.7,1.4
		c2.1,2.4,2.4,5.7,0.4,8.3C357.4,75.9,355.1,76.8,352.3,76.8z"/>
	<path class="st0" d="M249.2,152.6c-2.6,0-5.4,0-8.1,0c0.3-6.6,0.3-13.2,0-19.8c2.5,0,5.2,0,8.1,0
		C249.2,139.4,249.2,146,249.2,152.6z"/>
	<path class="st0" d="M245.6,124.1c1.4,0.1,2.9,0.7,3.7,2.3c1.1,2.1-0.2,4.5-2.6,5.2c-1.7,0.5-3.2,0.2-4.6-1c-1.7-1.4-1.6-4.2,0-5.5
		C243,124.5,244.1,124.1,245.6,124.1z"/>
	<path class="st0" d="M387.5,149.3c0.3,2-1.6,3.7-3.8,3.8c-2.1,0.1-4.1-1.8-4-3.8c0.2-2.2,1.3-3.7,3.9-3.8
		C385.8,145.5,387.8,146.9,387.5,149.3z"/>
	<path class="st6" d="M8.5,145.6c0.1-0.5,0.2-0.9,0.3-1.4c0.4-4,0.7-8,1.1-12c0.6-6.3,2-12.5,3.5-18.6c1.7-6.6,3.8-13.1,6.6-19.4
		c2.2-4.9,4.4-9.9,6.9-14.6c3.7-6.9,7.8-13.5,12.7-19.6c3.4-4.3,7-8.4,10.6-12.5c4.1-4.8,9-9,13.8-13c6.7-5.6,13.9-10.4,21.4-14.8
		c8.8-5,18-8.9,27.6-11.9c6.2-1.9,12.4-3.4,18.8-4.2c3.1-0.4,6.3-0.8,9.5-1.1c1.7-0.2,3.3-0.2,5-0.3c0.2,0,0.5-0.2,0.7-0.3
		c1.2,0,2.4,0,3.5,0c2.2,0.8,2.7,2.5,2.7,4.6c0,7.9,0,15.8,0,23.7c0,3-1.3,4.3-4.4,4.5c-4.4,0.1-8.7,0.8-13.1,1.3
		c-6.1,0.7-11.9,2.3-17.7,4.4c-7.2,2.5-14,5.8-20.4,9.9c-4.9,3.1-9.5,6.6-13.8,10.5c-4.4,4-8.4,8.3-12.1,12.9
		c-5.6,7-10.2,14.6-14,22.7c-3.8,8.1-6.6,16.5-8.4,25.2c-0.8,3.9-1.4,7.8-1.9,11.7c-0.4,3.9-0.6,7.8-0.9,11.7
		c-0.1,1.4-0.2,2.9-0.3,4.3c-0.1,1.5-1.4,2.6-3,2.6c-5.9,0-11.8,0-17.7,0c-4.3,0-8.6-0.1-12.9,0c-2,0.1-3.4-0.7-4.2-2.5
		C8.5,148.2,8.5,146.9,8.5,145.6z"/>
	<path class="st6" d="M77.1,151.9c-5.6,0-11.2-0.1-16.8,0c-2,0-3.7-1.4-3.6-3.5c0.2-6.4,1-12.7,2.4-19c1.7-7.5,4.2-14.8,7.5-21.7
		c3.4-7.2,7.6-14,12.5-20.3c3.5-4.5,7.4-8.7,11.5-12.5c5.6-5.1,11.7-9.6,18.4-13.3c5.4-3,11.1-5.5,17-7.4c4.6-1.5,9.3-2.7,14.2-3.1
		c3.1-0.3,6.2-0.6,9.2-0.8c2.4-0.1,3.8,1.4,3.8,3.8c0,8.5,0,17.1,0,25.6c0,1.1-0.1,2.2-0.3,3.2c-0.3,1.6-1.4,2.4-3,2.5
		c-9.1,0.4-17.5,2.9-25.3,7.7c-3.8,2.4-7.3,5.1-10.3,8.4c-5.1,5.6-9.2,11.9-11.8,19c-1.6,4.4-3,9-4,13.6c-0.8,3.5-0.9,7.2-1.2,10.8
		c-0.1,1.5-0.2,3.1-0.3,4.6c-0.1,1.3-1.5,2.4-3,2.4C88.5,151.9,82.8,151.9,77.1,151.9z"/>
</g>
</svg>
