<?xml version="1.0" encoding="utf-8"?>
<!-- Generator: Adobe Illustrator 19.2.0, SVG Export Plug-In . SVG Version: 6.00 Build 0)  -->
<svg version="1.1" id="Layer_1" xmlns="http://www.w3.org/2000/svg" xmlns:xlink="http://www.w3.org/1999/xlink" x="0px" y="0px"
	 viewBox="0 0 87 69" style="enable-background:new 0 0 87 69;" xml:space="preserve">
<g>
	<path d="M17.1,18.2l-5-14.3H12c0.1,2.1,0.2,4.1,0.2,6v8.3H9.7V1.1h3.9l4.8,13.6h0.1l4.9-13.6h4v17.1h-2.7V9.8c0-0.9,0-2,0.1-3.3
		s0.1-2.2,0.1-2.5h-0.1l-5.1,14.3H17.1z"/>
	<path d="M41.5,18.2h-9.7V1.1h9.7v2.4h-6.9v4.7h6.5v2.3h-6.5v5.4h6.9V18.2z"/>
	<path d="M59.5,18.2h-3.4L47.6,4.6h-0.1l0.1,0.8c0.1,1.5,0.2,2.8,0.2,4v8.9h-2.5V1.1h3.4L57,14.7h0.1c0-0.2,0-0.8-0.1-2
		s-0.1-2-0.1-2.6v-9h2.6V18.2z"/>
	<path d="M77.5,1.1v11.1c0,1.3-0.3,2.4-0.8,3.3s-1.3,1.7-2.4,2.2s-2.3,0.8-3.7,0.8c-2.1,0-3.8-0.6-5-1.7s-1.8-2.7-1.8-4.6v-11h2.8
		v10.8c0,1.4,0.3,2.5,1,3.1s1.7,1,3,1c2.6,0,4-1.4,4-4.2V1.1H77.5z"/>
</g>
<path d="M73.8,34.5H13.2c-1.8,0-3.2-1.5-3.2-3.2v0c0-1.8,1.5-3.2,3.2-3.2h60.5c1.8,0,3.2,1.5,3.2,3.2v0C77,33,75.5,34.5,73.8,34.5z"
	/>
<path d="M73.8,46.3H13.2c-1.8,0-3.2-1.5-3.2-3.2v0c0-1.8,1.5-3.2,3.2-3.2h60.5c1.8,0,3.2,1.5,3.2,3.2v0C77,44.8,75.5,46.3,73.8,46.3
	z"/>
<path d="M73.8,58H13.2c-1.8,0-3.2-1.5-3.2-3.2v0c0-1.8,1.5-3.2,3.2-3.2h60.5c1.8,0,3.2,1.5,3.2,3.2v0C77,56.5,75.5,58,73.8,58z"/>
</svg>
